<svg version="1" xmlns="http://www.w3.org/2000/svg" width="1333.333" height="1333.333" viewBox="0 0 1000.000000 1000.000000"><path d="M2 500v476h296V709h239.5l14.4 27.3c8 14.9 16.9 31.5 20 36.7 3 5.2 11.7 21.8 19.3 36.9 7.6 15 14.7 28.5 15.7 30 1 1.4 10.3 18.5 20.7 37.9 10.4 19.4 21 39.2 23.7 44 2.6 4.7 5 9.6 5.3 10.7.4 1.1 5.6 11.3 11.6 22.7l11 20.8h158.9c100 0 158.9-.4 158.9-1 0-1-26.8-52.5-38.5-74-3.8-6.9-10.8-20.7-15.6-30.8-4.9-10-11.3-22.6-14.3-28-3-5.3-12.4-23-20.9-39.2-8.5-16.2-18.9-35.9-23.1-43.8-4.2-7.8-7.6-14.7-7.6-15.3 0-1.2-19-38.1-20-38.9-1.2-.9-24.1-46.1-23.8-46.9.4-1.1 19.8-14.2 19.8-13.3 0 .3.7-.4 1.6-1.6.8-1.2 2-2.2 2.5-2.2 1.1 0 1 .1 10.4-7.8 20-16.8 52.3-54.1 66.6-76.7 4.7-7.5 24.9-48 24.9-49.9 0-.3 1.3-3.4 2.9-6.9 9-19.6 18.7-58.7 22.8-91.7 2.5-20.1 2.5-75.8 0-97.5-5.9-52-15.9-86.7-37.2-130-10.3-20.8-14-26.6-29.6-46.4-24.6-31.2-54.7-55.4-94.4-75.7-29.3-15.1-57.7-24.6-95-31.7l-11-2.1-357.7-.3L2 24v476zm608.6-212.4c7 2.4 19.7 8.5 20.2 9.6.2.5 1 .8 1.8.8s1.4.4 1.4 1c0 .5.6 1 1.4 1 .8 0 2.3 1.1 3.4 2.5 1.1 1.3 2.2 2.2 2.5 1.9.3-.3 3.3 2.7 6.6 6.8 14.1 17 20.8 44.9 15.7 66-2.1 9.2-7.7 22.6-11.7 28.4-3.9 5.7-15.8 17.6-16.9 16.9-.4-.3-1.1.2-1.4 1.1-.3.8-1 1.3-1.5 1-.5-.3-1.2.1-1.5 1-.3.8-1 1.3-1.5 1-.5-.4-1.5 0-2.3.7-.7.7-4.5 2.5-8.4 4-15.3 5.9-7.5 5.7-170.6 5.7H298V285l153.3.2c152.6.3 153.2.3 159.3 2.4z"/></svg>